<svg width="10" height="10" viewBox="0 0 10 10" fill="none" xmlns="http://www.w3.org/2000/svg">
<path d="M0.714286 3.57143C1.10857 3.57143 1.42857 3.25143 1.42857 2.85714V1.42857H4.28571V8.57143H2.85714C2.46286 8.57143 2.14286 8.89143 2.14286 9.28571C2.14286 9.68 2.46286 10 2.85714 10H7.14286C7.53714 10 7.85714 9.68 7.85714 9.28571C7.85714 8.89143 7.53714 8.57143 7.14286 8.57143H5.71429V1.42857H8.57143V2.85714C8.57143 3.25143 8.89143 3.57143 9.28571 3.57143C9.68 3.57143 10 3.25143 10 2.85714V0.714286C10 0.319999 9.68 0 9.28571 0H0.714286C0.319999 0 0 0.319999 0 0.714286V2.85714C0 3.25143 0.319999 3.57143 0.714286 3.57143Z" fill="#C6CBD6"/>
</svg>
