<svg width="12" height="13" viewBox="0 0 12 13" fill="none" xmlns="http://www.w3.org/2000/svg">
<path d="M11.72 5.65172L9.96353 3.47202C9.75114 3.20856 9.44892 3.04357 9.11266 3.00743C8.77822 2.97129 8.4417 3.07159 8.18164 3.28058L7.73539 3.64041C7.48633 3.84102 7.33391 4.11731 7.2831 4.4101H4.89704C4.8368 4.4101 4.77762 4.41534 4.72026 4.42503C4.67208 4.12674 4.51835 3.84442 4.2651 3.64041L3.81832 3.28032C3.55879 3.07133 3.22357 2.97129 2.88809 3.00717C2.5513 3.04331 2.24935 3.2083 2.03643 3.47202L0.280731 5.65119C0.0680778 5.91465 -0.0290828 6.24516 0.00758158 6.58168C0.0437222 6.91847 0.20845 7.22017 0.472172 7.43308L0.918691 7.79292C1.14339 7.97362 1.42545 8.0734 1.71326 8.0734C1.85232 8.0734 1.98798 8.05088 2.11605 8.00793L5.36818 10.6082C5.5769 10.7677 5.83669 10.8557 6.09911 10.8557C6.1342 10.8557 6.16929 10.8541 6.20386 10.851C6.43851 10.83 6.66505 10.7399 6.84968 10.592L10.0272 8.04983C10.1115 8.06737 10.1984 8.08021 10.2867 8.08021C10.287 8.08021 10.287 8.08021 10.287 8.08021C10.5748 8.08021 10.8571 7.9765 11.0815 7.79606L11.5281 7.43439C11.7915 7.22174 11.9568 6.91899 11.9921 6.58247C12.0296 6.24646 11.9327 5.91518 11.72 5.65172ZM0.972379 6.81319C0.874694 6.73436 0.813412 6.62201 0.800056 6.49709C0.786438 6.37217 0.822578 6.24961 0.901145 6.15166L2.65684 3.97275C2.73594 3.8748 2.84802 3.81378 2.97294 3.7999C2.98971 3.79807 3.00673 3.79728 3.02323 3.79728C3.13034 3.79728 3.23536 3.83447 3.31811 3.90125L3.76489 4.26109C3.96681 4.42398 3.99902 4.7207 3.83587 4.92262L2.0799 7.10153C1.92251 7.29716 1.61531 7.33094 1.4189 7.17276L0.972379 6.81319ZM8.83951 7.97807C8.75361 8.04695 8.63157 8.04669 8.54593 7.97728L6.66295 6.45231C6.51577 6.33341 6.33193 6.26873 6.1431 6.26977L4.8973 6.27606C4.74174 6.27606 4.61708 6.14616 4.61708 5.9906V5.49275C4.61708 5.33719 4.742 5.21436 4.8973 5.21436H7.1828C7.25351 5.21436 7.31977 5.24605 7.36429 5.30052L9.11763 7.45272C9.15665 7.50143 9.17551 7.5635 9.1687 7.62531C9.16241 7.68737 9.13073 7.7442 9.08254 7.78349L8.83951 7.97807ZM11.2012 6.49735C11.1873 6.62227 11.1266 6.73436 11.0286 6.81319L10.5821 7.17303C10.4975 7.24112 10.3959 7.277 10.2878 7.277C10.144 7.277 10.0101 7.21283 9.92058 7.10179L8.16488 4.92262C8.00251 4.7207 8.03394 4.42398 8.23612 4.26109L8.68211 3.90152C8.76565 3.83447 8.87041 3.79728 8.97752 3.79728C8.99376 3.79728 9.01131 3.79807 9.0278 3.7999C9.15273 3.81352 9.26455 3.8748 9.34338 3.97249L11.0993 6.15192C11.1787 6.24961 11.2143 6.37217 11.2012 6.49735Z" fill="#C4CAD5"/>
</svg>
