<svg width="12" height="13" viewBox="0 0 12 13" fill="none" xmlns="http://www.w3.org/2000/svg">
<path fill-rule="evenodd" clip-rule="evenodd" d="M8.75025 2.03138C8.75025 3.15328 7.84078 4.06275 6.71888 4.06275C5.59698 4.06275 4.6875 3.15328 4.6875 2.03138C4.6875 0.909478 5.59698 0 6.71888 0C7.84078 0 8.75025 0.909478 8.75025 2.03138ZM6.55671 11.5464C6.94673 11.5464 7.39607 11.3969 7.40095 11.3952C7.58296 11.3351 7.78528 11.4099 7.88279 11.5764C7.97948 11.7438 7.94536 11.9575 7.79991 12.0851C7.75766 12.1225 6.74522 13 5.242 13C4.98361 13 4.72197 12.9724 4.46683 12.9212C3.74934 12.7749 3.19519 12.3662 2.90592 11.7706C2.55164 11.0434 2.62234 10.113 3.10499 9.15015L3.91754 7.52911C4.35063 6.66619 4.0963 6.4858 3.95898 6.38992C3.93217 6.37123 3.84604 6.32654 3.63234 6.32654C3.24231 6.32654 2.79216 6.47686 2.7881 6.47849C2.60284 6.54187 2.40214 6.46549 2.30463 6.2981C2.20794 6.13071 2.24206 5.91783 2.38751 5.78944C2.42976 5.75207 3.44139 4.87451 4.94379 4.87451C5.203 4.87451 5.46464 4.90051 5.72222 4.95333C6.43808 5.09959 6.99305 5.5083 7.28232 6.1039C7.63659 6.83195 7.56508 7.76232 7.08324 8.72438L6.27069 10.3446C5.83679 11.2092 6.0903 11.3871 6.22681 11.4822C6.25444 11.5017 6.34138 11.5464 6.55671 11.5464Z" fill="#C4CAD5"/>
</svg>
