<svg width="11" height="14" viewBox="0 0 11 14" fill="none" xmlns="http://www.w3.org/2000/svg">
<path fill-rule="evenodd" clip-rule="evenodd" d="M7.32867 1.67732H9.44606C10.3029 1.67732 11 2.39492 11 3.27683V3.3589C11 4.0328 10.5922 4.60962 10.0179 4.84468V12.4005C10.0179 13.2824 9.32084 14 8.46397 14H2.53605C1.67921 14 0.982085 13.2824 0.982085 12.4005V4.84466C0.407722 4.60962 0 4.0328 0 3.35887V3.2768C0 2.39492 0.697046 1.67732 1.55394 1.67732H3.67144C3.77706 0.734637 4.55622 0 5.49998 0C6.44378 0 7.22304 0.734666 7.32867 1.67732ZM6.58394 1.67732C6.4848 1.15452 6.03676 0.758549 5.49998 0.758549C4.9634 0.758549 4.51533 1.1545 4.41622 1.67732H6.58394ZM8.46394 13.2415C8.91433 13.2415 9.28088 12.8642 9.28088 12.4005V4.95835H1.71908V12.4005C1.71908 12.8642 2.08564 13.2415 2.53602 13.2415H8.46394ZM9.44603 4.19983C9.89641 4.19983 10.263 3.82255 10.263 3.35887H10.263V3.2768C10.263 2.81312 9.89644 2.43584 9.44606 2.43584H1.55394C1.10355 2.43584 0.737 2.81312 0.737 3.2768V3.35887C0.737 3.82255 1.10355 4.19983 1.55394 4.19983H9.44603ZM3.8952 11.8922C3.8952 12.1016 3.73023 12.2714 3.5267 12.2714C3.32318 12.2714 3.15817 12.1016 3.1582 11.8922V7.62179C3.1582 7.41239 3.32321 7.24251 3.5267 7.24251C3.7302 7.24251 3.8952 7.41239 3.8952 7.62179V11.8922ZM5.50327 12.2714C5.70679 12.2714 5.87179 12.1016 5.87179 11.8922V7.62179C5.87179 7.41239 5.70673 7.24251 5.50327 7.24251C5.29977 7.24251 5.13477 7.41239 5.13477 7.62179V11.8922C5.13477 12.1016 5.29974 12.2714 5.50327 12.2714ZM7.84833 11.8922C7.84833 12.1016 7.68335 12.2714 7.47986 12.2714C7.27636 12.2714 7.1113 12.1016 7.11133 11.8922V7.62179C7.11133 7.41239 7.27631 7.24251 7.47986 7.24251C7.68332 7.24251 7.84833 7.41239 7.84833 7.62179V11.8922Z" fill="#F15642"/>
</svg>
