<svg width="12" height="13" viewBox="0 0 12 13" fill="none" xmlns="http://www.w3.org/2000/svg">
<path d="M5 1C7.76144 1 10 2.86822 10 5.17278C10 7.47735 7.76144 9.34556 5 9.34556C4.73481 9.34556 4.47452 9.32816 4.22048 9.29497C3.14646 10.3981 1.90619 10.5959 0.666667 10.625V10.355C1.33596 10.0182 1.875 9.40473 1.875 8.70359C1.875 8.60577 1.86758 8.50973 1.85385 8.41578C0.723042 7.65075 0 6.48228 0 5.17278C0 2.86822 2.23858 1 5 1ZM10.375 10.3531C10.375 10.9541 10.7533 11.4799 11.3333 11.7686V12C10.2591 11.9751 9.27306 11.8055 8.34229 10.86C8.12208 10.8884 7.89654 10.9034 7.66667 10.9034C6.67221 10.9034 5.75617 10.6267 5.02485 10.1618C6.53185 10.1563 7.95463 9.65842 9.03354 8.75805C9.5774 8.30415 10.0064 7.77162 10.3087 7.17519C10.6291 6.54284 10.7917 5.86913 10.7917 5.17278C10.7917 5.06055 10.787 4.94896 10.7786 4.83797C11.5345 5.48179 12 6.3593 12 7.3267C12 8.44913 11.3734 9.45064 10.3934 10.1064C10.3814 10.1869 10.375 10.2692 10.375 10.3531Z" fill="#C4CAD5"/>
</svg>
