<svg width="18" height="16" viewBox="0 0 18 16" fill="none" xmlns="http://www.w3.org/2000/svg">
<path fill-rule="evenodd" clip-rule="evenodd" d="M13.6406 0.197876L17.7949 4.198C17.9316 4.32971 18 4.48608 18 4.6665C18 4.84705 17.9316 5.00317 17.7949 5.13525L13.6406 9.13531C13.5117 9.26721 13.3496 9.33313 13.1543 9.33313C13.0684 9.33313 12.9785 9.31586 12.8848 9.28119C12.6035 9.16302 12.4629 8.95825 12.4629 8.66638V6.66638H10.7305C8.40234 6.66638 6.82227 7.12134 5.99219 8.03107C5.13477 8.98236 4.86719 10.6249 5.19336 12.9583C5.21484 13.118 5.14258 13.2359 4.97656 13.3123C4.91797 13.3263 4.875 13.3331 4.8457 13.3331C4.73047 13.3331 4.63672 13.288 4.56445 13.1977L4.33789 12.8748C4.25781 12.7567 4.11719 12.519 3.91016 12.1613C3.70508 11.8038 3.52734 11.4582 3.375 11.1251C3.31055 10.9821 3.24805 10.8276 3.1875 10.6616C3.10742 10.4406 3.03125 10.1993 2.95898 9.93762C2.89062 9.6897 2.8418 9.45203 2.81055 9.22449C2.7832 9.03119 2.76953 8.84528 2.76953 8.66656C2.76953 8.32648 2.78125 8.01038 2.80664 7.71875C2.83203 7.42712 2.88281 7.11469 2.95898 6.78131C3.03516 6.44806 3.13477 6.14252 3.26172 5.86462C3.38867 5.58685 3.55664 5.30389 3.76953 5.01575C3.90234 4.836 4.04883 4.6684 4.20898 4.51294C4.30469 4.41913 4.40625 4.32977 4.51172 4.24487C4.79297 4.0191 5.13281 3.80554 5.5332 3.60419C5.93359 3.40283 6.38281 3.23431 6.88086 3.09906C7.1543 3.0246 7.45117 2.95911 7.77148 2.90253C8.0332 2.85614 8.31055 2.81573 8.60547 2.78131C9.25781 2.70496 9.9668 2.66675 10.7305 2.66675H12.4629V0.666626C12.4629 0.374939 12.6035 0.170105 12.8848 0.052002C12.9785 0.017395 13.0684 0 13.1543 0C13.3418 0 13.5039 0.065918 13.6406 0.197876ZM14.625 10.0832C14.7402 9.97211 14.8672 9.94415 15.0039 9.99994C15.1543 10.0625 15.2305 10.1631 15.2305 10.302V12.9999C15.2305 13.8264 14.9258 14.533 14.3164 15.1198C13.707 15.7066 12.9727 16 12.1152 16H3.11523C2.25781 16 1.52344 15.7066 0.914062 15.1198C0.527344 14.7474 0.263672 14.3268 0.123047 13.858C0.0410156 13.588 0 13.3019 0 12.9999V4.33337C0 3.50696 0.304688 2.80035 0.914062 2.21356C1.32227 1.82043 1.78711 1.55896 2.30664 1.4292C2.5625 1.3653 2.83203 1.33337 3.11523 1.33337H5.87305C5.92969 1.33337 5.98242 1.34552 6.03125 1.36993C6.0625 1.38562 6.08984 1.40637 6.11719 1.43219C6.1582 1.47211 6.1875 1.51642 6.20312 1.56512C6.21484 1.59698 6.2207 1.6308 6.2207 1.6665C6.2207 1.85413 6.12695 1.96521 5.93945 1.99982C5.38281 2.18036 4.9043 2.38879 4.5 2.62494C4.42773 2.65265 4.36914 2.66663 4.32617 2.66663H3.11523C2.63867 2.66663 2.23242 2.82977 1.89258 3.15619C1.55469 3.4826 1.38477 3.87482 1.38477 4.33319V13C1.38477 13.238 1.42969 13.4582 1.52148 13.6606C1.60742 13.8479 1.73047 14.02 1.89258 14.177C2.23242 14.5034 2.63867 14.6666 3.11523 14.6666H12.1152C12.5918 14.6666 12.998 14.5034 13.3379 14.177C13.6777 13.8504 13.8457 13.4583 13.8457 13V10.7706C13.8457 10.6387 13.9102 10.538 14.041 10.4686C14.2422 10.3785 14.4375 10.2499 14.625 10.0832Z" fill="white"/>
</svg>
