<svg width="12" height="13" viewBox="0 0 12 13" fill="none" xmlns="http://www.w3.org/2000/svg">
<path fill-rule="evenodd" clip-rule="evenodd" d="M2.16808 11.9844H3.98084C4.2802 11.9844 4.52286 12.2117 4.52286 12.4922C4.52286 12.7727 4.2802 13 3.98084 13H2.16808C0.972601 13 0 12.0888 0 10.9688V2.03125C0 0.911219 0.972601 0 2.16808 0H8.83192C10.0274 0 11 0.911219 11 2.03125V5.1543C11 5.43476 10.7573 5.66211 10.458 5.66211C10.1586 5.66211 9.91596 5.43476 9.91596 5.1543V2.03125C9.91596 1.47123 9.42966 1.01562 8.83192 1.01562H2.16808C1.57034 1.01562 1.08404 1.47123 1.08404 2.03125V10.9688C1.08404 11.5288 1.57034 11.9844 2.16808 11.9844ZM8.43089 5C8.74521 5 9 5.22385 9 5.5C9 5.77615 8.74521 6 8.43089 6H7.56911C7.25479 6 7 5.77615 7 5.5C7 5.22385 7.25479 5 7.56911 5H8.43089ZM11.5649 7.43874C10.9848 6.85383 10.041 6.85381 9.46129 7.43834L6.7386 10.1776C6.68078 10.2358 6.63813 10.3075 6.61437 10.3863L6.02142 12.3546C5.96886 12.5291 6.01465 12.7186 6.14096 12.8491C6.23559 12.9469 6.36413 13 6.49597 13C6.54008 13 6.58462 12.9941 6.62833 12.9818L8.63 12.4227C8.71237 12.3997 8.78746 12.3557 8.84796 12.2948L11.5649 9.5603C12.145 8.9754 12.145 8.0237 11.5649 7.43874ZM8.23956 11.494L7.23254 11.7753L7.52724 10.797L9.36436 8.94869L10.0658 9.65601L8.23956 11.494ZM10.864 8.85283L10.7679 8.94952L10.0665 8.24232L10.1623 8.14596C10.3556 7.95099 10.6702 7.95099 10.8636 8.14596C11.057 8.34093 11.057 8.65816 10.864 8.85283ZM6.56911 3H8.43089C8.74521 3 9 3.22385 9 3.5C9 3.77615 8.74521 4 8.43089 4H6.56911C6.25479 4 6 3.77615 6 3.5C6 3.22385 6.25479 3 6.56911 3Z" fill="#C4CAD5"/>
</svg>
