<svg width="10" height="8" viewBox="0 0 10 8" fill="none" xmlns="http://www.w3.org/2000/svg">
<path fill-rule="evenodd" clip-rule="evenodd" d="M0.892789 0H9.10685C9.34866 0 9.55797 0.0874361 9.73474 0.262218C9.9113 0.437217 9.99977 0.647329 9.99977 0.89288C9.99977 1.18678 9.90852 1.46766 9.72651 1.73543C9.54418 2.00321 9.31731 2.23209 9.04576 2.42176C8.14286 3.04843 7.46152 3.52154 6.99889 3.84298C6.74464 4.01952 6.55553 4.15098 6.43418 4.23542C6.41619 4.24808 6.38809 4.26807 6.35074 4.29486C6.31053 4.32364 6.25964 4.36031 6.19698 4.40565C6.07607 4.4931 5.97563 4.56376 5.89564 4.61776C5.8155 4.67164 5.71884 4.7321 5.60541 4.79909C5.49187 4.8661 5.38495 4.9163 5.28453 4.94976C5.18406 4.98321 5.09105 4.99998 5.00552 4.99998H4.99996H4.99441C4.90886 4.99998 4.81587 4.98321 4.71542 4.94976C4.61498 4.9163 4.50797 4.86599 4.39452 4.79909C4.28098 4.7321 4.18419 4.67177 4.10431 4.61776C4.02431 4.56376 3.92388 4.49308 3.80298 4.40565L3.6491 4.29477L3.6451 4.29191C3.60976 4.26664 3.583 4.24752 3.56577 4.23542C3.40999 4.12587 3.22132 3.99387 3.00255 3.84143C2.74589 3.66242 2.44721 3.45498 2.10377 3.21698C1.46755 2.77621 1.08622 2.5111 0.959764 2.42176C0.729101 2.26553 0.511436 2.05075 0.30688 1.77732C0.102324 1.50377 0 1.24987 0 1.01554C0 0.725433 0.0771058 0.483531 0.231571 0.290104C0.38591 0.0967679 0.606225 0 0.892789 0ZM0 2.53336C0.16367 2.71569 0.351669 2.87757 0.563669 3.01891C1.35388 3.55591 1.99754 3.99802 2.4971 4.34679L0 6.84389V2.53336ZM9.69161 7.63615C9.52603 7.7827 9.33126 7.85691 9.10648 7.85691H0.892401C0.667638 7.85691 0.47274 7.7827 0.307182 7.63615L3.14085 4.80215C3.21173 4.85304 3.27729 4.90059 3.3364 4.94393C3.54853 5.10016 3.72051 5.22203 3.85263 5.30938C3.98462 5.39692 4.1604 5.48616 4.37995 5.57726C4.5995 5.66849 4.80406 5.71393 4.99384 5.71393H4.99939H5.00495C5.19471 5.71393 5.39927 5.66847 5.61884 5.57726C5.83826 5.48616 6.01404 5.39692 6.14616 5.30938C6.27829 5.22203 6.45037 5.10014 6.66239 4.94393C6.72463 4.89892 6.79051 4.85159 6.85848 4.80292L9.69161 7.63615ZM9.44184 3.01891C8.68176 3.53336 8.03576 3.97624 7.50375 4.34779L9.99986 6.844V2.53336C9.83982 2.71203 9.65384 2.87379 9.44184 3.01891Z" fill="#C4CAD5"/>
</svg>
