<svg width="14" height="18" viewBox="0 0 14 18" fill="none" xmlns="http://www.w3.org/2000/svg">
<path fill-rule="evenodd" clip-rule="evenodd" d="M11.9057 10.5521L13.8314 13.4252C14.0342 13.7279 14.0557 14.1196 13.8871 14.4433C13.7185 14.7669 13.3877 14.9693 13.0272 14.9693H0.972783C0.61232 14.9693 0.281441 14.7669 0.112898 14.4433C-0.0556452 14.1196 -0.0341943 13.7279 0.168647 13.4253L2.09432 10.5521V6.96753C2.09432 4.55014 3.78934 2.53506 6.03804 2.08092V0.977051C6.03804 0.437468 6.46871 0 6.99999 0C7.53127 0 7.96194 0.437468 7.96198 0.977051V2.08088C10.2107 2.53498 11.9057 4.55006 11.9057 6.96749V10.5521ZM5.25 15.7227L5.25029 15.7109H8.74971L8.75 15.7227C8.75 16.7043 7.9665 17.5001 7 17.5001C6.0335 17.5001 5.25 16.7043 5.25 15.7227Z" fill="#BFC5D1"/>
</svg>
