<svg width="17" height="17" viewBox="0 0 17 17" fill="none" xmlns="http://www.w3.org/2000/svg">
<path fill-rule="evenodd" clip-rule="evenodd" d="M0 4C0 3.44772 0.447715 3 1 3H16C16.5523 3 17 3.44772 17 4C17 4.55228 16.5523 5 16 5H1C0.447715 5 0 4.55228 0 4ZM0 8C0 7.44772 0.447715 7 1 7H10C10.5523 7 11 7.44772 11 8C11 8.55228 10.5523 9 10 9H1C0.447715 9 0 8.55228 0 8ZM1 11C0.447715 11 0 11.4477 0 12C0 12.5523 0.447715 13 1 13H16C16.5523 13 17 12.5523 17 12C17 11.4477 16.5523 11 16 11H1Z" fill="white"/>
</svg>
