<svg width="25" height="25" viewBox="0 0 25 25" fill="none" xmlns="http://www.w3.org/2000/svg">
<path fill-rule="evenodd" clip-rule="evenodd" d="M0 12.5C0 5.6075 5.6075 0 12.5 0C19.3924 0 25 5.6075 25 12.5C25 19.3925 19.3925 25 12.5 25C5.6075 25 0 19.3925 0 12.5ZM2.14288 12.5C2.14288 18.2108 6.7892 22.8571 12.5 22.8571C18.2107 22.8571 22.8571 18.2108 22.8571 12.5C22.8571 6.7892 18.2108 2.14288 12.5 2.14288C6.7892 2.14288 2.14288 6.7892 2.14288 12.5ZM15.8201 7.66375C16.2379 7.24522 16.9166 7.24522 17.3351 7.66375C17.7537 8.08228 17.7537 8.76037 17.3351 9.1789L14.0134 12.5009L17.3353 15.8229C17.7538 16.2414 17.7538 16.9194 17.3353 17.3379C17.1259 17.5472 16.8519 17.6518 16.5777 17.6518C16.3035 17.6518 16.0293 17.5471 15.8201 17.3379L12.4984 14.0159L9.17671 17.3379C8.9678 17.5472 8.69332 17.6518 8.41913 17.6518C8.14494 17.6518 7.87075 17.5471 7.66156 17.3379C7.24302 16.9194 7.24302 16.2414 7.66156 15.8229L10.9834 12.5008L7.6617 9.17876C7.24317 8.76023 7.24317 8.08228 7.6617 7.66375C8.08023 7.24522 8.75817 7.24522 9.17671 7.66375L12.4984 10.9859L15.8201 7.66375Z" fill="#363F55"/>
</svg>
