<svg width="12" height="13" viewBox="0 0 12 13" fill="none" xmlns="http://www.w3.org/2000/svg">
<path d="M5.52707 5.79828C5.7094 5.61936 5.7094 5.3286 5.52707 5.14968C5.34473 4.97075 5.04843 4.97075 4.8661 5.14968L2.39316 7.57634C1.97151 7.99011 1.74359 8.52688 1.74359 9.10839C1.74359 9.68989 1.97151 10.2267 2.39316 10.6404C3.25926 11.4903 4.66097 11.4903 5.51567 10.6404L11.0997 5.16086C11.6809 4.59054 12 3.83011 12 3.02495C12 2.21978 11.6809 1.45935 11.0997 0.889032C9.89174 -0.296344 7.94302 -0.296344 6.73504 0.889032L1.16239 6.35742C0.410257 7.09548 0 8.06839 0 9.10839C0 10.1484 0.410257 11.1325 1.16239 11.8594C1.91453 12.5974 2.90598 13 3.96581 13C5.02564 13 6.02849 12.5974 6.76923 11.8594L9.24217 9.43269C9.4245 9.25376 9.4245 8.96301 9.24217 8.78409C9.05983 8.60516 8.76353 8.60516 8.5812 8.78409L6.10826 11.2108C5.53846 11.7699 4.77493 12.083 3.96581 12.083C3.1567 12.083 2.39316 11.7699 1.82336 11.2108C1.25356 10.6516 0.934473 9.90237 0.934473 9.10839C0.934473 8.31441 1.25356 7.56516 1.82336 7.00602L7.39601 1.53763C7.80627 1.13505 8.34188 0.922581 8.91168 0.922581C9.48148 0.922581 10.0285 1.14624 10.4274 1.53763C10.8376 1.94021 11.0541 2.46581 11.0541 3.02495C11.0541 3.58409 10.8262 4.12086 10.4274 4.51226L4.84331 9.99183C4.35328 10.4727 3.54416 10.4727 3.04274 9.99183C2.80342 9.75699 2.66667 9.44387 2.66667 9.10839C2.66667 8.7729 2.80342 8.45979 3.04274 8.22495L5.52707 5.79828Z" fill="#C4CAD5"/>
</svg>
