<svg width="64" height="12" viewBox="0 0 64 12" fill="none" xmlns="http://www.w3.org/2000/svg">
<path d="M4.382 11.168C3.60733 11.168 2.856 11.0653 2.128 10.86C1.40933 10.6453 0.830667 10.37 0.392 10.034L1.162 8.326C1.582 8.634 2.08133 8.88133 2.66 9.068C3.23867 9.25467 3.81733 9.348 4.396 9.348C5.04 9.348 5.516 9.25467 5.824 9.068C6.132 8.872 6.286 8.61533 6.286 8.298C6.286 8.06467 6.19267 7.87333 6.006 7.724C5.82867 7.56533 5.59533 7.43933 5.306 7.346C5.026 7.25267 4.64333 7.15 4.158 7.038C3.41133 6.86067 2.8 6.68333 2.324 6.506C1.848 6.32867 1.43733 6.044 1.092 5.652C0.756 5.26 0.588 4.73733 0.588 4.084C0.588 3.51467 0.742 3.00133 1.05 2.544C1.358 2.07733 1.82 1.70867 2.436 1.438C3.06133 1.16733 3.822 1.032 4.718 1.032C5.34333 1.032 5.95467 1.10667 6.552 1.256C7.14933 1.40533 7.672 1.62 8.12 1.9L7.42 3.622C6.51467 3.10867 5.60933 2.852 4.704 2.852C4.06933 2.852 3.598 2.95467 3.29 3.16C2.99133 3.36533 2.842 3.636 2.842 3.972C2.842 4.308 3.01467 4.56 3.36 4.728C3.71467 4.88667 4.25133 5.04533 4.97 5.204C5.71667 5.38133 6.328 5.55867 6.804 5.736C7.28 5.91333 7.686 6.19333 8.022 6.576C8.36733 6.95867 8.54 7.47667 8.54 8.13C8.54 8.69 8.38133 9.20333 8.064 9.67C7.756 10.1273 7.28933 10.4913 6.664 10.762C6.03867 11.0327 5.278 11.168 4.382 11.168ZM14.5137 3.356C15.4471 3.356 16.1984 3.636 16.7677 4.196C17.3464 4.756 17.6357 5.58667 17.6357 6.688V11H15.4517V7.024C15.4517 6.42667 15.3211 5.98333 15.0597 5.694C14.7984 5.39533 14.4204 5.246 13.9257 5.246C13.3751 5.246 12.9364 5.41867 12.6097 5.764C12.2831 6.1 12.1197 6.604 12.1197 7.276V11H9.93573V0.611999H12.1197V4.252C12.4091 3.96267 12.7591 3.74333 13.1697 3.594C13.5804 3.43533 14.0284 3.356 14.5137 3.356ZM23.2815 11.112C22.4881 11.112 21.7741 10.9487 21.1395 10.622C20.5141 10.286 20.0241 9.824 19.6695 9.236C19.3148 8.648 19.1375 7.98067 19.1375 7.234C19.1375 6.48733 19.3148 5.82 19.6695 5.232C20.0241 4.644 20.5141 4.18667 21.1395 3.86C21.7741 3.524 22.4881 3.356 23.2815 3.356C24.0748 3.356 24.7841 3.524 25.4095 3.86C26.0348 4.18667 26.5248 4.644 26.8795 5.232C27.2341 5.82 27.4115 6.48733 27.4115 7.234C27.4115 7.98067 27.2341 8.648 26.8795 9.236C26.5248 9.824 26.0348 10.286 25.4095 10.622C24.7841 10.9487 24.0748 11.112 23.2815 11.112ZM23.2815 9.32C23.8415 9.32 24.2988 9.13333 24.6535 8.76C25.0175 8.37733 25.1995 7.86867 25.1995 7.234C25.1995 6.59933 25.0175 6.09533 24.6535 5.722C24.2988 5.33933 23.8415 5.148 23.2815 5.148C22.7215 5.148 22.2595 5.33933 21.8955 5.722C21.5315 6.09533 21.3495 6.59933 21.3495 7.234C21.3495 7.86867 21.5315 8.37733 21.8955 8.76C22.2595 9.13333 22.7215 9.32 23.2815 9.32ZM36.2493 7.262C36.2493 7.29 36.2353 7.486 36.2073 7.85H30.5093C30.6119 8.31667 30.8546 8.68533 31.2373 8.956C31.6199 9.22667 32.0959 9.362 32.6653 9.362C33.0573 9.362 33.4026 9.306 33.7013 9.194C34.0093 9.07267 34.2939 8.886 34.5553 8.634L35.7173 9.894C35.0079 10.706 33.9719 11.112 32.6093 11.112C31.7599 11.112 31.0086 10.9487 30.3553 10.622C29.7019 10.286 29.1979 9.824 28.8433 9.236C28.4886 8.648 28.3113 7.98067 28.3113 7.234C28.3113 6.49667 28.4839 5.834 28.8293 5.246C29.1839 4.64867 29.6646 4.18667 30.2713 3.86C30.8873 3.524 31.5733 3.356 32.3293 3.356C33.0666 3.356 33.7339 3.51467 34.3313 3.832C34.9286 4.14933 35.3953 4.60667 35.7313 5.204C36.0766 5.792 36.2493 6.478 36.2493 7.262ZM32.3433 5.008C31.8486 5.008 31.4333 5.148 31.0973 5.428C30.7613 5.708 30.5559 6.09067 30.4813 6.576H34.1913C34.1166 6.1 33.9113 5.722 33.5753 5.442C33.2393 5.15267 32.8286 5.008 32.3433 5.008Z" fill="#363F55"/>
<path d="M42.1553 3.356C42.8553 3.356 43.49 3.51933 44.0593 3.846C44.638 4.16333 45.0906 4.616 45.4173 5.204C45.744 5.78267 45.9073 6.45933 45.9073 7.234C45.9073 8.00867 45.744 8.69 45.4173 9.278C45.0906 9.85667 44.638 10.3093 44.0593 10.636C43.49 10.9533 42.8553 11.112 42.1553 11.112C41.1193 11.112 40.3306 10.7853 39.7893 10.132V11H37.7033V0.611999H39.8873V4.266C40.438 3.65933 41.194 3.356 42.1553 3.356ZM41.7773 9.32C42.3373 9.32 42.7946 9.13333 43.1493 8.76C43.5133 8.37733 43.6953 7.86867 43.6953 7.234C43.6953 6.59933 43.5133 6.09533 43.1493 5.722C42.7946 5.33933 42.3373 5.148 41.7773 5.148C41.2173 5.148 40.7553 5.33933 40.3913 5.722C40.0366 6.09533 39.8593 6.59933 39.8593 7.234C39.8593 7.86867 40.0366 8.37733 40.3913 8.76C40.7553 9.13333 41.2173 9.32 41.7773 9.32ZM50.9533 11.112C50.16 11.112 49.446 10.9487 48.8113 10.622C48.186 10.286 47.696 9.824 47.3413 9.236C46.9867 8.648 46.8093 7.98067 46.8093 7.234C46.8093 6.48733 46.9867 5.82 47.3413 5.232C47.696 4.644 48.186 4.18667 48.8113 3.86C49.446 3.524 50.16 3.356 50.9533 3.356C51.7467 3.356 52.456 3.524 53.0813 3.86C53.7067 4.18667 54.1967 4.644 54.5513 5.232C54.906 5.82 55.0833 6.48733 55.0833 7.234C55.0833 7.98067 54.906 8.648 54.5513 9.236C54.1967 9.824 53.7067 10.286 53.0813 10.622C52.456 10.9487 51.7467 11.112 50.9533 11.112ZM50.9533 9.32C51.5133 9.32 51.9707 9.13333 52.3253 8.76C52.6893 8.37733 52.8713 7.86867 52.8713 7.234C52.8713 6.59933 52.6893 6.09533 52.3253 5.722C51.9707 5.33933 51.5133 5.148 50.9533 5.148C50.3933 5.148 49.9313 5.33933 49.5673 5.722C49.2033 6.09533 49.0213 6.59933 49.0213 7.234C49.0213 7.86867 49.2033 8.37733 49.5673 8.76C49.9313 9.13333 50.3933 9.32 50.9533 9.32ZM61.0987 11L59.4467 8.69L57.7387 11H55.3587L58.2567 7.206L55.4567 3.468H57.9067L59.5027 5.666L61.1407 3.468H63.4647L60.6647 7.15L63.5767 11H61.0987Z" fill="#1875F0"/>
</svg>
